<?xml version="1.0" standalone="no"?>
<!DOCTYPE svg PUBLIC "-//W3C//DTD SVG 20010904//EN"
 "http://www.w3.org/TR/2001/REC-SVG-20010904/DTD/svg10.dtd">
<svg version="1.0" xmlns="http://www.w3.org/2000/svg"
 width="800.000000pt" height="800.000000pt" viewBox="0 0 800.000000 800.000000"
 preserveAspectRatio="xMidYMid meet">
<metadata>
Created by potrace 1.11, written by Peter Selinger 2001-2013
</metadata>
<g transform="translate(0.000000,800.000000) scale(0.100000,-0.100000)"
fill="#000000" stroke="none">
<path d="M0 4000 l0 -4000 4000 0 4000 0 0 4000 0 4000 -4000 0 -4000 0 0
-4000z m4508 2451 c208 -120 559 -323 782 -451 359 -207 586 -338 940 -543
l105 -61 0 -1263 c0 -1116 -2 -1263 -15 -1263 -12 0 -13 -2 -1 -9 11 -7 14
-77 15 -389 l1 -381 -105 56 c-235 125 -484 267 -727 415 -18 11 -33 17 -33
15 0 -3 35 -26 78 -53 42 -26 85 -53 95 -59 15 -11 1 -22 -110 -85 -71 -41
-393 -227 -718 -415 -324 -188 -613 -354 -640 -369 l-50 -28 -300 174 c-165
96 -406 236 -535 310 -299 172 -760 441 -1097 639 l-263 154 0 1276 0 1276 23
10 c32 15 648 372 1177 683 876 515 985 578 993 579 5 1 178 -97 385 -218z"/>
<path d="M3800 5722 c-179 -103 -471 -274 -650 -379 -179 -105 -379 -222 -445
-260 l-120 -69 0 -894 0 -894 90 -54 c191 -115 625 -368 975 -567 201 -115
387 -224 414 -242 26 -18 52 -33 57 -33 17 0 99 45 294 160 319 190 582 340
594 340 10 0 217 -112 314 -170 20 -12 37 -20 37 -17 0 3 -74 49 -165 103 -91
54 -165 101 -165 104 0 8 149 93 325 185 61 32 156 85 212 117 56 32 105 58
109 58 3 0 92 -48 198 -107 218 -122 328 -180 305 -161 -9 7 -127 74 -263 148
l-246 135 1 899 c2 871 1 900 -17 914 -11 8 -53 30 -94 50 -41 19 -133 70
-205 112 -71 43 -303 176 -515 297 -212 121 -459 264 -549 317 -90 53 -164 96
-165 96 -1 0 -148 -85 -326 -188z"/>
<path d="M6200 2926 c0 -3 9 -10 20 -16 11 -6 20 -8 20 -6 0 3 -9 10 -20 16
-11 6 -20 8 -20 6z"/>
<path d="M5385 2625 c22 -18 86 -53 70 -38 -5 6 -28 20 -50 32 -22 13 -31 15
-20 6z"/>
</g>
</svg>
